<svg width="20" height="20" viewBox="0 0 20 20" fill="none" xmlns="http://www.w3.org/2000/svg">
<path fill-rule="evenodd" clip-rule="evenodd" d="M10.7955 4.375C10.7955 4.02982 10.5156 3.75 10.1705 3.75H1.875C0.839464 3.75 0 4.58947 0 5.625V18.125C0 19.1605 0.839466 20 1.875 20H14.375C15.4105 20 16.25 19.1605 16.25 18.125V9.82955C16.25 9.48437 15.9702 9.20455 15.625 9.20455C15.2798 9.20455 15 9.48437 15 9.82955V18.125C15 18.4702 14.7202 18.75 14.375 18.75H1.875C1.52982 18.75 1.25 18.4702 1.25 18.125V5.625C1.25 5.27982 1.52982 5 1.875 5H10.1705C10.5156 5 10.7955 4.72018 10.7955 4.375Z" fill="black"/>
<path fill-rule="evenodd" clip-rule="evenodd" d="M20 0.625C20 0.279822 19.7202 0 19.375 0H13.125C12.7798 0 12.5 0.279822 12.5 0.625C12.5 0.970178 12.7798 1.25 13.125 1.25H17.8661L7.68306 11.4331C7.43898 11.6771 7.43898 12.0729 7.68306 12.3169C7.92714 12.561 8.32286 12.561 8.56694 12.3169L18.75 2.13388V6.875C18.75 7.22018 19.0298 7.5 19.375 7.5C19.7202 7.5 20 7.22018 20 6.875V0.625Z" fill="black"/>
</svg>
