<svg width="178" height="32" viewBox="0 0 178 32" fill="none" xmlns="http://www.w3.org/2000/svg">
<ellipse cx="14.8954" cy="16.3555" rx="14.8954" ry="14.2222" fill="#072692"/>
<path d="M24.9715 14.888C24.4275 14.2 23.7795 13.656 23.0275 13.256C22.2755 12.84 21.5315 12.632 20.7955 12.632C19.9475 12.632 19.1715 12.848 18.4675 13.28C17.7795 13.696 17.2355 14.28 16.8355 15.032C16.4355 15.768 16.2355 16.592 16.2355 17.504C16.2355 18.416 16.4355 19.248 16.8355 20C17.2355 20.736 17.7795 21.32 18.4675 21.752C19.1715 22.168 19.9475 22.376 20.7955 22.376C21.4835 22.376 22.2035 22.2 22.9555 21.848C23.7075 21.496 24.3795 21.016 24.9715 20.408L27.5395 23.168C26.6275 24.128 25.5395 24.896 24.2755 25.472C23.0275 26.032 21.7875 26.312 20.5555 26.312C18.8915 26.312 17.3875 25.928 16.0435 25.16C14.6995 24.392 13.6435 23.344 12.8755 22.016C12.1075 20.688 11.7235 19.2 11.7235 17.552C11.7235 15.92 12.1155 14.448 12.8995 13.136C13.6835 11.824 14.7555 10.792 16.1155 10.04C17.4915 9.288 19.0275 8.912 20.7235 8.912C21.9715 8.912 23.2035 9.176 24.4195 9.704C25.6355 10.216 26.6675 10.92 27.5155 11.816L24.9715 14.888Z" fill="#FAFAFA"/>
<path d="M34.1493 15.176C34.5973 14.424 35.1733 13.848 35.8773 13.448C36.5973 13.048 37.4133 12.848 38.3253 12.848V16.76C38.1813 16.744 37.9653 16.736 37.6773 16.736C36.6693 16.736 35.8533 16.976 35.2293 17.456C34.6053 17.92 34.2453 18.56 34.1493 19.376V26H29.8773V13.016H34.1493V15.176ZM48.2409 27.272C47.7449 28.488 47.0809 29.384 46.2489 29.96C45.4169 30.552 44.3849 30.848 43.1529 30.848C42.4329 30.848 41.7609 30.736 41.1369 30.512C40.5129 30.304 39.9049 29.968 39.3129 29.504L41.0889 26.552C41.3929 26.808 41.6809 26.992 41.9529 27.104C42.2249 27.216 42.5129 27.272 42.8169 27.272C43.5209 27.272 44.0409 26.944 44.3769 26.288L44.6889 25.688L39.3129 13.016H43.7049L46.8009 21.464L49.5609 13.016H53.8089L48.2409 27.272ZM63.889 12.872C65.089 12.872 66.145 13.152 67.057 13.712C67.969 14.256 68.673 15.04 69.169 16.064C69.681 17.072 69.937 18.24 69.937 19.568C69.937 20.88 69.689 22.032 69.193 23.024C68.713 24.016 68.017 24.784 67.105 25.328C66.209 25.872 65.169 26.144 63.985 26.144C63.169 26.144 62.425 25.992 61.753 25.688C61.097 25.368 60.537 24.912 60.073 24.32V30.656H55.801V13.016H60.073V14.696C61.017 13.48 62.289 12.872 63.889 12.872ZM62.833 22.688C63.665 22.688 64.337 22.392 64.849 21.8C65.377 21.208 65.641 20.432 65.641 19.472C65.641 18.512 65.377 17.736 64.849 17.144C64.337 16.536 63.665 16.232 62.833 16.232C62.017 16.232 61.353 16.536 60.841 17.144C60.329 17.736 60.073 18.512 60.073 19.472C60.073 20.432 60.329 21.208 60.841 21.8C61.353 22.392 62.017 22.688 62.833 22.688ZM81.0387 25.328C80.5587 25.6 80.0067 25.816 79.3827 25.976C78.7587 26.12 78.1267 26.192 77.4867 26.192C76.2067 26.192 75.1667 25.824 74.3667 25.088C73.5827 24.352 73.1907 23.336 73.1907 22.04V16.472H71.3907V13.64H73.1907V10.04H77.4387V13.64H80.7987V16.472H77.4387V21.368C77.4387 22.28 77.8147 22.736 78.5667 22.736C79.0307 22.736 79.5827 22.592 80.2227 22.304L81.0387 25.328ZM89.4775 12.872C90.8855 12.872 92.1255 13.152 93.1975 13.712C94.2695 14.256 95.1015 15.032 95.6935 16.04C96.2855 17.032 96.5815 18.184 96.5815 19.496C96.5815 20.824 96.2855 21.992 95.6935 23C95.1015 23.992 94.2695 24.768 93.1975 25.328C92.1255 25.872 90.8855 26.144 89.4775 26.144C88.0695 26.144 86.8295 25.872 85.7575 25.328C84.6855 24.768 83.8535 23.992 83.2615 23C82.6855 21.992 82.3975 20.824 82.3975 19.496C82.3975 18.184 82.6855 17.032 83.2615 16.04C83.8535 15.032 84.6855 14.256 85.7575 13.712C86.8295 13.152 88.0695 12.872 89.4775 12.872ZM89.4775 16.328C88.6455 16.328 87.9735 16.624 87.4615 17.216C86.9495 17.808 86.6935 18.584 86.6935 19.544C86.6935 20.52 86.9495 21.304 87.4615 21.896C87.9735 22.488 88.6455 22.784 89.4775 22.784C90.3255 22.784 91.0055 22.488 91.5175 21.896C92.0295 21.304 92.2855 20.52 92.2855 19.544C92.2855 18.584 92.0215 17.808 91.4935 17.216C90.9815 16.624 90.3095 16.328 89.4775 16.328ZM97.0643 13.016H101.408L104 21.8L106.544 13.016H110.624L113.192 21.8L115.784 13.016H119.96L115.208 26H110.984L108.512 17.984L106.016 26H101.792L97.0643 13.016ZM127.371 12.848C129.163 12.848 130.555 13.264 131.547 14.096C132.539 14.912 133.043 16.064 133.059 17.552V26H128.859V24.536C127.995 25.64 126.691 26.192 124.947 26.192C123.571 26.192 122.483 25.824 121.683 25.088C120.899 24.336 120.507 23.352 120.507 22.136C120.507 20.904 120.931 19.944 121.779 19.256C122.643 18.568 123.875 18.216 125.475 18.2H128.859V18.056C128.859 17.432 128.643 16.952 128.211 16.616C127.795 16.28 127.187 16.112 126.387 16.112C125.843 16.112 125.227 16.2 124.539 16.376C123.867 16.552 123.187 16.808 122.499 17.144L121.323 14.264C122.379 13.784 123.387 13.432 124.347 13.208C125.323 12.968 126.331 12.848 127.371 12.848ZM126.267 23.288C126.907 23.288 127.467 23.136 127.947 22.832C128.427 22.512 128.731 22.104 128.859 21.608V20.48H126.315C125.115 20.48 124.515 20.928 124.515 21.824C124.515 22.272 124.667 22.632 124.971 22.904C125.291 23.16 125.723 23.288 126.267 23.288ZM144.834 25.328C144.354 25.6 143.802 25.816 143.178 25.976C142.554 26.12 141.922 26.192 141.282 26.192C140.002 26.192 138.962 25.824 138.162 25.088C137.378 24.352 136.986 23.336 136.986 22.04V16.472H135.186V13.64H136.986V10.04H141.234V13.64H144.594V16.472H141.234V21.368C141.234 22.28 141.61 22.736 142.362 22.736C142.826 22.736 143.378 22.592 144.018 22.304L144.834 25.328ZM153.081 16.4C152.313 16.4 151.689 16.696 151.209 17.288C150.729 17.864 150.489 18.616 150.489 19.544C150.489 20.488 150.729 21.248 151.209 21.824C151.689 22.4 152.313 22.688 153.081 22.688C154.265 22.688 155.113 22.2 155.625 21.224L158.769 23.024C158.257 24.016 157.489 24.784 156.465 25.328C155.441 25.872 154.241 26.144 152.865 26.144C151.537 26.144 150.369 25.872 149.361 25.328C148.353 24.784 147.569 24.016 147.009 23.024C146.465 22.032 146.193 20.88 146.193 19.568C146.193 18.24 146.473 17.072 147.033 16.064C147.593 15.04 148.377 14.256 149.385 13.712C150.409 13.152 151.585 12.872 152.913 12.872C154.209 12.872 155.361 13.144 156.369 13.688C157.377 14.216 158.161 14.968 158.721 15.944L155.625 17.744C155.017 16.848 154.169 16.4 153.081 16.4ZM169.87 12.848C171.31 12.848 172.454 13.296 173.302 14.192C174.166 15.088 174.598 16.296 174.598 17.816V26H170.326V19.04C170.326 18.304 170.126 17.728 169.726 17.312C169.342 16.88 168.806 16.664 168.118 16.664C167.334 16.68 166.71 16.96 166.246 17.504C165.798 18.032 165.574 18.728 165.574 19.592V26H161.302V8.192H165.574V15.128C166.038 14.376 166.63 13.808 167.35 13.424C168.086 13.04 168.926 12.848 169.87 12.848Z" fill="#001666"/>
</svg>
