<svg width="239" height="45" viewBox="0 0 239 45" fill="none" xmlns="http://www.w3.org/2000/svg">
<circle cx="20" cy="23" r="20" fill="#F6F6F6"/>
<path d="M16.056 22.736C16.056 29.456 20.728 34.16 27.352 34.16C32.696 34.16 36.728 31.184 38.008 26.32H31.992C31.064 28.24 29.368 29.2 27.288 29.2C23.928 29.2 21.624 26.704 21.624 22.736C21.624 18.768 23.928 16.272 27.288 16.272C29.368 16.272 31.064 17.232 31.992 19.152H38.008C36.728 14.288 32.696 11.28 27.352 11.28C20.728 11.28 16.056 16.016 16.056 22.736Z" fill="black"/>
<path d="M47.471 25.712C47.471 22.64 48.975 21.744 51.567 21.744H53.071V15.952C50.671 15.952 48.719 17.232 47.471 19.12V16.144H41.999V34H47.471V25.712ZM64.5505 27.312L60.4225 16.144H54.3105L61.5745 33.392L57.4785 42.48H63.3665L74.5665 16.144H68.6465L64.5505 27.312ZM82.6572 18.672V16.144H77.1852V42.512H82.6572V31.504C83.6492 33.008 85.5372 34.256 88.1612 34.256C92.5452 34.256 96.0332 30.672 96.0332 25.04C96.0332 19.408 92.5452 15.888 88.1612 15.888C85.5372 15.888 83.6492 17.104 82.6572 18.672ZM90.4652 25.04C90.4652 27.888 88.6092 29.488 86.5292 29.488C84.4812 29.488 82.6252 27.92 82.6252 25.072C82.6252 22.224 84.4812 20.656 86.5292 20.656C88.6092 20.656 90.4652 22.192 90.4652 25.04ZM100.408 27.792C100.408 32.432 103 34 106.712 34H109.496V29.36H107.544C106.328 29.36 105.88 28.912 105.88 27.856V20.688H109.464V16.144H105.88V11.792H100.408V16.144H98.232V20.688H100.408V27.792ZM130.656 25.072C130.656 19.408 126.624 15.888 121.376 15.888C116.16 15.888 112.096 19.408 112.096 25.072C112.096 30.736 116.064 34.256 121.312 34.256C126.56 34.256 130.656 30.736 130.656 25.072ZM117.664 25.072C117.664 22.032 119.392 20.624 121.376 20.624C123.296 20.624 125.088 22.032 125.088 25.072C125.088 28.08 123.264 29.52 121.312 29.52C119.328 29.52 117.664 28.08 117.664 25.072ZM137.207 34H143.223L146.135 22.416L148.951 34H154.999L159.831 16.144H154.679L152.183 28.848L149.143 16.144H143.351L140.343 28.912L137.815 16.144H132.343L137.207 34ZM161.47 25.04C161.47 30.672 164.958 34.256 169.31 34.256C171.966 34.256 173.854 33.04 174.846 31.472V34H180.318V16.144H174.846V18.672C173.886 17.104 171.998 15.888 169.342 15.888C164.958 15.888 161.47 19.408 161.47 25.04ZM174.846 25.072C174.846 27.92 173.022 29.488 170.942 29.488C168.894 29.488 167.038 27.888 167.038 25.04C167.038 22.192 168.894 20.656 170.942 20.656C173.022 20.656 174.846 22.224 174.846 25.072ZM185.78 27.792C185.78 32.432 188.372 34 192.084 34H194.868V29.36H192.916C191.7 29.36 191.252 28.912 191.252 27.856V20.688H194.836V16.144H191.252V11.792H185.78V16.144H183.604V20.688H185.78V27.792ZM197.468 25.072C197.468 30.736 201.18 34.256 206.428 34.256C210.908 34.256 214.076 31.664 215.004 27.536H209.18C208.7 28.848 207.836 29.584 206.332 29.584C204.38 29.584 203.036 28.048 203.036 25.072C203.036 22.096 204.38 20.56 206.332 20.56C207.836 20.56 208.732 21.36 209.18 22.608H215.004C214.076 18.352 210.908 15.888 206.428 15.888C201.18 15.888 197.468 19.44 197.468 25.072ZM218.571 34H224.043V24.304C224.043 21.872 225.387 20.528 227.467 20.528C229.547 20.528 230.891 21.872 230.891 24.304V34H236.331V23.568C236.331 18.768 233.611 15.952 229.547 15.952C227.083 15.952 225.131 17.008 224.043 18.544V10.32H218.571V34Z" fill="#F6F6F6"/>
</svg>
