<svg width="20" height="20" viewBox="0 0 20 20" fill="none" xmlns="http://www.w3.org/2000/svg">
<path fill-rule="evenodd" clip-rule="evenodd" d="M8.68824 0.543348C9.41271 -0.181117 10.5873 -0.181115 11.3118 0.543349L19.4567 8.68824C20.1811 9.41271 20.1811 10.5873 19.4566 11.3118L11.3118 19.4567C10.5873 20.1811 9.4127 20.1811 8.68824 19.4566L0.543348 11.3118C-0.181117 10.5873 -0.181115 9.4127 0.543349 8.68824L8.68824 0.543348ZM10.4373 1.41785C10.1958 1.17637 9.80424 1.17637 9.56275 1.41785L1.41785 9.56275C1.17637 9.80424 1.17637 10.1958 1.41785 10.4373L9.56275 18.5821C9.80424 18.8236 10.1958 18.8236 10.4373 18.5821L18.5821 10.4373C18.8236 10.1958 18.8236 9.80424 18.5821 9.56275L10.4373 1.41785Z" fill="#999999"/>
<path d="M8.75195 13.75C8.75195 13.0596 9.3116 12.5 10.002 12.5C10.6923 12.5 11.252 13.0596 11.252 13.75C11.252 14.4404 10.6923 15 10.002 15C9.3116 15 8.75195 14.4404 8.75195 13.75Z" fill="#999999"/>
<path d="M8.87441 6.2438C8.80781 5.57786 9.33076 5 10 5C10.6693 5 11.1922 5.57785 11.1256 6.2438L10.6872 10.6281C10.6519 10.9811 10.3548 11.25 10 11.25C9.64522 11.25 9.34814 10.9811 9.31284 10.6281L8.87441 6.2438Z" fill="#999999"/>
</svg>
