<svg width="20" height="20" viewBox="0 0 20 20" fill="none" xmlns="http://www.w3.org/2000/svg">
<path fill-rule="evenodd" clip-rule="evenodd" d="M11.8778 6.26602C11.7616 6.21399 11.625 6.29866 11.625 6.43335V7.87495C11.625 8.22012 11.3452 8.49995 11 8.49995C10.1662 8.49995 8.48381 8.50644 6.87389 9.52771C5.64506 10.3072 4.38659 11.7273 3.63151 14.3728C4.90709 13.1433 6.36304 12.478 7.63758 12.1243C8.57929 11.8629 9.42619 11.7698 10.0389 11.7418C10.3458 11.7278 10.5957 11.73 10.7715 11.736C10.8594 11.739 10.9289 11.743 10.9779 11.7463C11.0025 11.748 11.0218 11.7495 11.0359 11.7507L11.0528 11.7522L11.0582 11.7527L11.0602 11.7528L11.0609 11.7529C11.0612 11.7529 11.0615 11.753 11 12.3749L11.0615 11.753C11.3813 11.7846 11.625 12.0536 11.625 12.3749V13.8165C11.625 13.9512 11.7616 14.0359 11.8778 13.9839L16.8572 10.3179C16.8743 10.3053 16.8921 10.2935 16.9104 10.2827C17.0299 10.2123 17.0299 10.0375 16.9104 9.96715C16.8921 9.95635 16.8743 9.94462 16.8572 9.932L11.8778 6.26602ZM10.375 12.9821C10.2901 12.9833 10.1967 12.9859 10.0959 12.9905C9.55434 13.0152 8.80359 13.0979 7.97186 13.3287C6.31367 13.7889 4.35074 14.8306 3.04639 17.1785C2.90101 17.4401 2.59052 17.562 2.30597 17.4691C2.02142 17.3761 1.84273 17.0945 1.87986 16.7974C2.45962 12.1594 4.23715 9.72006 6.2043 8.47218C7.76185 7.48413 9.36348 7.29479 10.375 7.25853V6.43335C10.375 5.31406 11.5868 4.64227 12.5309 5.19864C12.5492 5.20945 12.567 5.22118 12.5841 5.23379L17.576 8.90896C18.4747 9.46791 18.4747 10.782 17.576 11.3409L12.5841 15.0161C12.567 15.0287 12.5492 15.0404 12.5309 15.0512C11.5868 15.6076 10.375 14.9358 10.375 13.8165V12.9821Z" fill="#999999"/>
</svg>
